<?xml version="1.0" encoding="UTF-8"?>
<svg width="512pt" height="512pt" version="1.1" viewBox="0 0 512 512" xmlns="http://www.w3.org/2000/svg">
 <path d="m194.12 165.92c3.4414 0 6.2422 2.8008 6.2422 6.2422v18.32c0 3.4414-2.8008 6.2422-6.2422 6.2422s-6.2422-2.8008-6.2422-6.2422v-18.32c0-3.4414 2.8008-6.2422 6.2422-6.2422zm-13.859-12.102c0-3.4414-2.8008-6.2422-6.2422-6.2422-3.4414 0-6.2422 2.8008-6.2422 6.2422v18.32c0 3.4414 2.8008 6.2422 6.2422 6.2422 3.4414 0 6.2422-2.8008 6.2422-6.2422zm-6.2422 28.641c-3.4414 0-6.2422 2.8008-6.2422 6.2422v18.32c0 3.4414 2.8008 6.2422 6.2422 6.2422 3.4414 0 6.2422-2.8008 6.2422-6.2422v-18.32c0-3.4414-2.8008-6.2422-6.2422-6.2422zm-26.34-10.32v18.32c0 3.4414 2.8008 6.2422 6.2422 6.2422s6.2422-2.8008 6.2422-6.2422v-18.32c0-3.4414-2.8008-6.2422-6.2422-6.2422s-6.2422 2.8008-6.2422 6.2422zm-7.6406-18.32c0-3.4414-2.8008-6.2422-6.2422-6.2422s-6.2422 2.8008-6.2422 6.2422v18.32c0 3.4414 2.8008 6.2422 6.2422 6.2422s6.2422-2.8008 6.2422-6.2422zm-6.2422 28.641c-3.4414 0-6.2422 2.8008-6.2422 6.2422v18.32c0 3.4414 2.8008 6.2422 6.2422 6.2422s6.2422-2.8008 6.2422-6.2422v-18.32c0-3.4414-2.8008-6.2422-6.2422-6.2422zm-26.34-10.32v18.32c0 3.4414 2.8008 6.2422 6.2422 6.2422 3.4414 0 6.2422-2.8008 6.2422-6.2422v-18.32c0-3.4414-2.8008-6.2422-6.2422-6.2422-3.4414 0-6.2422 2.8008-6.2422 6.2422zm154.72-82.82v-27.219c0-3.4414 2.8008-6.2422 6.2422-6.2422s6.2422 2.8008 6.2422 6.2422v6.7812h23.602v-11.52c0-3.4414 2.8008-6.2422 6.2422-6.2422h98.141c3.4414 0 6.2422 2.8008 6.2422 6.2422v11.52h23.602v-6.7812c0-3.4414 2.8008-6.2422 6.2422-6.2422s6.2422 2.8008 6.2422 6.2422v27.219c0 3.4414-2.8008 6.2422-6.2422 6.2422s-6.2422-2.8008-6.2422-6.2422v-7.9609h-23.602v115.08c0 3.4414-2.8008 6.2422-6.2422 6.2422h-98.141c-3.4414 0-6.2422-2.8008-6.2422-6.2422l-0.019531-115.1h-23.602v7.9609c0 3.4414-2.8008 6.2422-6.2422 6.2422s-6.2422-2.8008-6.2422-6.2422zm134.2 58.379-7 4.0391c-0.96094 0.55859-2.0391 0.83984-3.1211 0.83984-1.0781 0-2.1602-0.28125-3.1211-0.83984l-13.238-7.6602-13.238 7.6602c-1.9414 1.1211-4.3203 1.1211-6.2617 0l-13.238-7.6602-13.238 7.6602c-1.9414 1.1211-4.3203 1.1211-6.2617 0l-7-4.0391v9.6016l10.121 5.8594 13.238-7.6602c1.9414-1.1211 4.3203-1.1211 6.2617 0l13.238 7.6602 13.238-7.6602c1.9414-1.1211 4.3203-1.1211 6.2617 0l13.238 7.6602 10.121-5.8594zm0 42.5v-18.5l-7 4.0391c-0.96094 0.55859-2.0391 0.83984-3.1211 0.83984-1.0781 0-2.1602-0.28125-3.1211-0.83984l-13.238-7.6602-13.238 7.6602c-1.9414 1.1211-4.3203 1.1211-6.2617 0l-13.238-7.6602-13.238 7.6602c-1.9414 1.1211-4.3203 1.1211-6.2617 0l-7-4.0391v18.5zm-85.656-126.6v69.68l10.121 5.8594 13.238-7.6602c1.9414-1.1211 4.3203-1.1211 6.2617 0l13.238 7.6602 13.238-7.6602c1.9414-1.1211 4.3203-1.1211 6.2617 0l13.238 7.6602 10.121-5.8594v-69.68zm123.78 310.42v42.941c0 15.961-13 28.961-28.961 28.961h-14.121v4.5c0 3.2383-1.8008 6.1406-4.6992 7.582-1.1992 0.60156-2.5 0.89844-3.7812 0.89844-1.8008 0-3.6016-0.57813-5.1016-1.7188l-23.461-17.781c-2.7617-2.1016-4.3594-5.3008-4.3594-8.7617 0-3.4805 1.5781-6.6602 4.3594-8.7617l23.461-17.781c2.5781-1.9609 5.9805-2.2812 8.8984-0.83984 2.8984 1.4414 4.6992 4.3594 4.6992 7.582v4.2188h12.219v-41.039c0.019531-10.059 7.9609-15.48 15.441-15.48h0.019532c7.4805 0 15.418 5.4414 15.398 15.48zm-12.48 0c0-2-0.98047-3-2.9414-3-1.3594 0-2.9805 0.51953-2.9805 3v42.941c0 5.8203-4.7383 10.578-10.578 10.578h-20.359c-3.4414 0-6.2422-2.8008-6.2422-6.2422v-2.3984l-15.48 11.738 15.48 11.738v-2.6797c0-3.4414 2.8008-6.2422 6.2422-6.2422h20.359c9.0781 0 16.48-7.3984 16.48-16.48v-42.941zm-70.281 40.262c-0.019532 10.059-7.9609 15.48-15.441 15.48h-0.019531c-7.4805 0-15.418-5.4414-15.398-15.48v-42.941c0-15.961 13-28.961 28.961-28.961h14.121v-4.5c0-3.2383 1.8008-6.1406 4.6992-7.582 2.8984-1.4414 6.3008-1.1211 8.8984 0.83984l23.461 17.781c2.7617 2.1016 4.3594 5.3008 4.3594 8.7617 0 3.4805-1.5781 6.6602-4.3594 8.7617l-23.461 17.781c-2.5781 1.9609-5.9805 2.2812-8.8984 0.83984-2.8984-1.4414-4.6992-4.3594-4.6992-7.582v-4.2188h-12.219v41.039zm-1.9219-53.52h20.359c3.4414 0 6.2422 2.8008 6.2422 6.2422v2.3984l15.48-11.738-15.48-11.738v2.6797c0 3.4414-2.8008 6.2422-6.2422 6.2422h-20.359c-9.0781 0-16.48 7.3984-16.48 16.48v42.941c0 2 0.98047 3 2.9414 3 1.3594 0 2.9805-0.51953 2.9805-3v-42.941c0-5.8203 4.7383-10.578 10.578-10.578zm112.86 33.141c0 46.621-37.941 84.562-84.562 84.562-37.621 0-69.559-24.68-80.5-58.699h-146.38c-22.602 0-42.898-13.441-51.723-34.219l-35.082-82.582c-8.6406-2.0586-15.078-9.8594-15.078-19.121 0-8.6602 5.6406-16.02 13.422-18.641l-0.039063-181.78c0-32.738 24.5-49.879 48.699-49.879s48.699 17.141 48.699 49.879v7.8594h12.059c3.4414 0 6.2422 2.8008 6.2422 6.2422v11.141c14.539 2.7188 30 14.238 30 26.98 0 3.4414-2.8008 6.2422-6.2422 6.2422h-96.578c-3.4414 0-6.2422-2.8008-6.2422-6.2422 0-13.379 15.199-24.48 29.98-27.039v-11.102c0-3.4414 2.8008-6.2422 6.2422-6.2422h12.059v-7.8594c0-25.699-18.781-37.398-36.219-37.398-17.441 0-36.219 11.699-36.219 37.398v180.74h367.36c10.84 0 19.66 8.8203 19.66 19.66 0 8.9219-5.9805 16.48-14.141 18.859l-6.8203 35.059c13.301 14.941 21.398 34.621 21.398 56.16zm-270.08-264.5c-4.5195-4.6016-12.859-8.8789-20.379-8.8789h-36.602c-7.8984 0-16.199 4.2188-20.578 8.8789zm-26.621-25.641h-24.121v4.3008h24.121zm-104.18 180.06c0 3.9609 3.2188 7.1797 7.1797 7.1797h373.6c3.9609 0 7.1797-3.2188 7.1797-7.1797 0-3.9609-3.2188-7.1797-7.1797-7.1797h-373.6c-3.9609 0-7.1797 3.2188-7.1797 7.1797zm232.82 123.44c-0.69922-4.3594-1.0586-8.8203-1.0586-13.379 0-46.621 37.941-84.562 84.562-84.562 19.781 0 38 6.8398 52.418 18.262l4.6992-24.121-357.04 0.019531 32.781 77.16c6.8789 16.18 22.68 26.621 40.238 26.621zm155.58-13.359c0-39.738-32.34-72.078-72.078-72.078-39.738 0-72.078 32.34-72.078 72.078s32.34 72.078 72.078 72.078c39.738 0 72.078-32.34 72.078-72.078z"/>
</svg>
