<?xml version="1.0" encoding="UTF-8"?>
<svg width="512pt" height="512pt" version="1.1" viewBox="0 0 512 512" xmlns="http://www.w3.org/2000/svg">
 <path d="m171.48 462.84c2.7188 0.33984 5.5-0.14063 8.3398-1.4219 3.5391-1.6016 7.1406-4.3789 10.84-8.3789l0.16016-0.17969-0.019531-0.019531 46.461-46.461-25.301-94.402-37.32-37.32-75.52 75.52c-0.5 1.1602-0.69922 2.3984-0.64062 3.6406 0.078125 1.4609 0.55859 2.9219 1.4609 4.1797 2.0391 2.8594 1.3789 6.8594-1.5 8.8984-0.53906 0.37891-1.1211 0.67969-1.7188 0.85938-3.2617 1.0586-6.0586 2.5391-8.3594 4.4219-2.2617 1.8398-4.0781 4.1016-5.4609 6.7617l-0.33984 0.67969 0.57812-0.078125 19.738-3.6602c2.3789-0.5 4.6602-0.33984 6.8203 0.44141l0.44141 0.17969c1.9219 0.76172 3.6406 2 5.1406 3.6797 0.60156 0.66016 1.0195 1.4219 1.2812 2.2188 4.3398 10.16 10.422 19.859 18.281 29.039 7.9805 9.3594 17.801 18.199 29.398 26.539 1.8008 1.1406 3.1602 2.5781 4.0586 4.3398 1 1.9414 1.3203 4.0391 0.98047 6.2812-0.14062 0.92188-0.48047 1.7812-0.96094 2.5195l0.019532 0.019531c-2.0391 3.1211-2.8008 5.5-2.3008 7.1602 0.5 1.5586 2.3008 3.0781 5.4414 4.5391zm11.102-198.32 35.5-35.5-41.379-44.379-3.0195 3.0195c-1.3203 1.3008-3.2188 2.0391-5.1992 1.8203l-20.301-2.1797-10.68 10.66-0.67969 16.84c0.058593 1.6992-0.55859 3.4414-1.8789 4.7383l-23.602 23.602c-2.5195 2.4805-6.5586 2.4609-9.0391-0.058594l-28.16-28.48-28.5-28.18c-2.5-2.5-2.5-6.5586 0-9.0586l23.582-23.582 0.019532 0.019531c1.1016-1.1016 2.5781-1.8008 4.2617-1.8594l17.301-0.69922 10.66-10.68-2.1406-19.84c-0.058594-0.35938-0.10156-0.76172-0.10156-1.1406 0-1.6406 0.62109-3.2812 1.8789-4.5195l54.922-54.922 0.019531 0.019531 0.33984-0.32031c20.66-17.941 44.602-24.82 68.059-23.359 25.82 1.6211 50.98 13.379 70.379 31.641 1.3008 1.2383 2.1016 3 2 4.9414-0.16016 3.5195-3.1602 6.2422-6.6797 6.0781-19.379-0.92188-35.941 0.57812-49.719 4.5391-11.82 3.3984-21.52 8.6016-29.102 15.602l11.801 33.238c0.98047 2.3398 0.51953 5.1211-1.3789 7.0195l-5.8008 5.8008 44.941 40.84 124.22-124.22 0.42188-0.37891c3.4805-3.2617 7.9414-4.9219 12.379-4.9219 4.6211 0 9.2617 1.7617 12.781 5.3008h0.019532l30.859 30.859c2.5 2.5 2.5 6.5586 0 9.0391-1.1602 1.1797-2.6797 1.8008-4.1992 1.8594l-11.641 0.94141 4.5781 14.422c1.0586 3.3594-0.80078 6.9414-4.1406 8-0.30078 0.10156-0.60156 0.16016-0.89844 0.21875l-15.66 2.6016 3.0586 15.781c0.66016 3.4609-1.6211 6.8203-5.0781 7.4805l-17.121 3.1406 3.1602 15.34c0.69922 3.4414-1.5195 6.8008-4.9609 7.5195l-15.801 3.3008 3.9414 16.961c0.80078 3.4414-1.3398 6.8789-4.7812 7.6602l-18.52 4.1797 4.3008 18.34c0.80078 3.4414-1.3398 6.8789-4.7812 7.6797l-17.379 3.5586 2.9414 15.98 113.42 103.1c15.941 14.941 18.898 32.219 14.199 46.379-2.0195 6.0586-5.4414 11.48-9.8398 15.898-4.4219 4.4219-9.8594 7.8398-15.898 9.8594-14.199 4.7188-31.559 1.6992-46.559-14.422l-92.422-99.16c-0.92188 1.3594-2.3398 2.3789-4.1016 2.7188l-16.16 4.0195 3.7617 16.922c0.76172 3.4414-1.4219 6.8398-4.8398 7.6016l-0.12109 0.019531v0.019532l-17.359 3.4609 4.0781 15.84c0.85938 3.3789-1.1602 6.8398-4.5391 7.7383v0.019532l-18.32 4.9219 6.6016 24.621c0.69922 2.1992 0.17969 4.7188-1.5781 6.4805l-49.059 49.059-0.019531-0.019531c-4.8594 5.2188-9.7812 8.9414-14.781 11.199-5.3008 2.3984-10.68 3.1602-16.102 2.2812-0.66016-0.058594-1.3203-0.21875-1.9609-0.51953-7.1016-3.1211-11.48-7.3984-13.16-12.84-1.3789-4.5-0.78125-9.3398 1.8203-14.5-11.961-8.6992-22.121-17.961-30.5-27.781-8.418-9.8594-15.039-20.301-19.859-31.32l-19.859 3.6797c-3.6211 0.67969-6.9414 0.19922-9.6016-1.1797-1.5781-0.82031-2.9219-1.9414-3.9414-3.3008-1.0391-1.3789-1.7617-3-2.1211-4.8398-0.53906-2.8984-0.058594-6.1992 1.7383-9.6797 2.2188-4.2812 5.1211-7.8789 8.6992-10.82 1.8398-1.5 3.8594-2.8398 6.0391-3.9805-0.32031-1.2617-0.5-2.5586-0.57813-3.8398-0.19922-3.6406 0.57813-7.3398 2.3203-10.68 0.30078-0.69922 0.76172-1.3789 1.3398-1.9609l80.742-80.742c2.5-2.5 6.5586-2.5 9.0391 0zm58 104.88-16.699-62.363c-0.30078-1.1211-0.87891-2.1016-1.6602-2.8789l-30.602-30.602 202.76-202.78c1-0.87891 2.2812-1.3203 3.5586-1.3203 1.3789 0 2.7383 0.51953 3.7812 1.5391l-0.019531 0.019531 21.059 21.059-6.0195 0.48047c-3.5195 0.28125-6.1406 3.3594-5.8789 6.8789 0.058594 0.67969 0.21875 1.3398 0.46094 1.9414l4.6211 14.539-14.922 2.4609c-3.4805 0.55859-5.8398 3.8398-5.2812 7.3203l3.1016 16.059-17.141 3.1406c-3.4609 0.64062-5.7617 3.9609-5.1211 7.418l3.2188 15.621-15.961 3.3203c-3.4609 0.71875-5.6602 4.1016-4.9609 7.5586l4 17.219-18.48 4.1797c-3.4414 0.78125-5.6016 4.1797-4.8203 7.6211l4.2617 18.281-16.879 3.4609c-3.4219 0.69922-5.6211 4-5 7.3984l3.1797 17.281-17.801 3.5586c-3.4609 0.67969-5.7188 4.0586-5.0195 7.5195l3.6602 16.961-15.441 1.9805c-3.5 0.44141-5.9609 3.6406-5.5195 7.1211l0.058594 0.42188h-0.019531l3.6211 18.32-16.602 4.1211c-3.4219 0.83984-5.5195 4.3008-4.6797 7.7188l3.6602 16.48-17.559 3.5195c-3.4609 0.67969-5.7188 4.0586-5.0195 7.5195 0.058593 0.30078 0.14062 0.60156 0.23828 0.89844l4.0391 15.66zm-13.461-149.42 24.738-24.738-44.941-40.84-21.199 21.199zm103 46.379-13.859 2.7812 3.7383 17.281c0.73828 3.4609-1.4414 6.8594-4.8984 7.6016-0.33984 0.078125-0.67969 0.12109-1.0195 0.14062l-15.102 1.9414 0.23828 1.2188 104.06 111.62c11.059 11.879 23.379 14.281 33.219 11.02 4.1016-1.3594 7.8203-3.7188 10.859-6.7617 3.0586-3.0586 5.4219-6.7812 6.7812-10.898 3.2617-9.8203 0.92188-22.078-10.859-33.102zm-163.34-89.918 43.102-43.102-11.941-33.621c-0.85938-2.4219-0.16016-5.0195 1.5586-6.6992 9.5195-10 22-17.219 37.422-21.641 10.34-2.9805 22.059-4.6797 35.141-5.1406-14.602-9.8203-31.379-15.961-48.379-17.02-20.18-1.2617-40.781 4.6211-58.617 19.961l-52.762 52.762 2.1797 20.301c0.19922 2-0.51953 3.8789-1.8398 5.1992l-14.559 14.582c-1.3008 1.3008-3.0195 1.9219-4.7383 1.8789l-16.84 0.67969-17.281 17.281c16.02 15.84 31.801 31.641 47.641 47.641l17.281-17.281 0.69922-17.301c0.058594-1.6602 0.76172-3.1602 1.8594-4.2617l-0.019531-0.019531 14.559-14.559c1.5391-1.5195 3.6406-2.1211 5.6211-1.7812zm26.398 232.82c-0.33984 0.85938-0.82031 1.6797-1.3984 2.4219-0.83984 1.0391-1.9414 1.8984-3.2383 2.5-1.1992 0.55859-2.6016 0.78125-3.9609 0.66016-0.62109-0.058594-1.2188-0.19922-1.7812-0.39844-3.5781-12.16-8.8008-22.859-15.762-32.34-7.1406-9.7188-16.078-18.121-26.898-25.418-0.48047-0.96094-0.76172-2-0.83984-3.0586-0.10156-1.4219 0.16016-2.8398 0.80078-4.1406 0.57813-1.1992 1.4414-2.1992 2.4609-2.9414l0.32031-0.19922c0.78125-0.51953 1.6602-0.89844 2.5586-1.1211 10.34 5.4414 20.199 14.781 28.398 25.699 9.0781 12.02 16.02 25.84 19.34 38.34zm-9.1211-46c10.398 13.84 18.34 29.922 21.879 44.422 0.28125 0.98047 0.32031 2.0391 0.078125 3.1211-0.76172 3.3008-2.2383 6.3398-4.3008 8.8984-2.0781 2.5781-4.7383 4.6797-7.7812 6.1016-3.2188 1.5-6.9805 2.1211-10.621 1.7617-3.5391-0.35938-7.0195-1.6211-9.8984-3.8789-1.0586-0.82031-1.8789-2-2.2617-3.3984-3.1602-11.66-7.9414-21.801-14.422-30.621-6.5195-8.8594-14.762-16.5-24.801-23.121-0.66016-0.44141-1.2617-1.0195-1.7383-1.7188-2.1406-3.1211-3.3594-6.6797-3.6211-10.281-0.26172-3.6211 0.44141-7.3203 2.1016-10.699 1.5586-3.1797 3.8984-5.8398 6.7188-7.8008l0.51953-0.37891c2.9609-1.9414 6.4219-3.1211 10.121-3.3594 1.1211-0.10156 2.2812 0.10156 3.3398 0.60156 12.82 6.1797 24.898 17.34 34.68 30.359z" fill-rule="evenodd"/>
</svg>
