<?xml version="1.0" encoding="UTF-8"?>
<svg width="512pt" height="512pt" version="1.1" viewBox="0 0 512 512" xmlns="http://www.w3.org/2000/svg">
 <path d="m18.293 366.09c0 2.0195 1.6367 3.6562 3.6562 3.6562h50.621l-35.387 92.32c-0.43359 1.1211-0.28125 2.3867 0.39844 3.3789 0.68359 0.99219 1.8125 1.5859 3.0156 1.5859h38.062c1.5156 0 2.875-0.93359 3.4141-2.3477l36.391-94.938h251.65l37.059 95.949c0.54297 1.4102 1.8984 2.3398 3.4102 2.3398h0.003907l37.711-0.03125c1.2031 0 2.3281-0.59375 3.0117-1.5859s0.83203-2.2578 0.39844-3.3789l-42.398-110.62 76.555-75.707c10.367-10.258 10.461-27.035 0.20703-37.402-4.9648-5.0234-11.594-7.8125-18.656-7.8516-0.050781-0.003906-0.10156-0.003906-0.15234-0.003906-7.0078 0-13.605 2.7109-18.59 7.6445l-77.34 76.48c-0.83203 0.81641-1.9297 1.2695-3.0977 1.2695l-346.29 0.003906c-2.0195 0-3.6562 1.6367-3.6562 3.6562zm57.852 93.629h-30.227l34.484-89.973h30.23zm366.84 0.97266-29.891 0.023438-35.137-90.973h2.9609c7.0078 0 13.613-2.7148 18.598-7.6445l4.1211-4.0742zm-417.38-136.53h342.63c3.1055 0 6.0312-1.2031 8.2422-3.3867l77.34-76.48c7.5-7.418 19.637-7.3516 27.059 0.15234 7.418 7.5 7.3477 19.641-0.15234 27.062l-78.133 77.266c-0.058594 0.054687-0.11328 0.10938-0.16797 0.16406l-8.0547 7.9648c-3.6055 3.5625-8.3828 5.5273-13.453 5.5273l-355.31 0.003906z"/>
 <path d="m143.86 84.402c-27.734 0-50.297 22.551-50.297 50.27 0 27.73 22.562 50.297 50.297 50.297 27.719 0 50.27-22.562 50.27-50.297 0.003906-27.719-22.547-50.27-50.27-50.27zm0 93.254c-23.699 0-42.98-19.281-42.98-42.98 0-23.688 19.281-42.957 42.98-42.957 23.688 0 42.957 19.27 42.957 42.957 0 23.699-19.27 42.98-42.957 42.98z"/>
 <path d="m147.5 68.188v-20.566c0-2.0195-1.6367-3.6562-3.6562-3.6562-2.0195 0-3.6562 1.6367-3.6562 3.6562v20.566c0 2.0195 1.6367 3.6562 3.6562 3.6562 2.0195 0 3.6562-1.6367 3.6562-3.6562z"/>
 <path d="m140.19 201.19v20.566c0 2.0195 1.6367 3.6562 3.6562 3.6562 2.0195 0 3.6562-1.6367 3.6562-3.6562v-20.566c0-2.0195-1.6367-3.6562-3.6562-3.6562-2.0195 0-3.6562 1.6367-3.6562 3.6562z"/>
 <path d="m110.18 80.227c0.62109 0 1.25-0.15625 1.8242-0.48828 1.75-1.0117 2.3477-3.2461 1.3398-4.9961l-10.285-17.812c-1.0117-1.7539-3.25-2.3516-4.9961-1.3398-1.75 1.0117-2.3477 3.2461-1.3398 4.9961l10.285 17.812c0.67969 1.1719 1.9102 1.8281 3.1719 1.8281z"/>
 <path d="m174.86 188.59c-1.75 1.0117-2.3477 3.2461-1.3398 4.9961l10.285 17.812c0.67969 1.1758 1.9062 1.8281 3.1719 1.8281 0.62109 0 1.25-0.15625 1.8242-0.48828 1.75-1.0117 2.3477-3.2461 1.3398-4.9961l-10.285-17.812c-1.0117-1.75-3.25-2.3555-4.9961-1.3398z"/>
 <path d="m88.387 102.49c1.0078-1.75 0.41016-3.9844-1.3398-4.9961l-17.812-10.285c-1.75-1.0156-3.9883-0.41406-4.9961 1.3398-1.0078 1.75-0.41016 3.9844 1.3398 4.9961l17.812 10.285c0.57422 0.33203 1.207 0.48828 1.8242 0.48828 1.2617 0 2.4922-0.65234 3.1719-1.8281z"/>
 <path d="m198.57 170.33 17.812 10.285c0.57422 0.33203 1.207 0.48828 1.8242 0.48828 1.2656 0 2.4922-0.65234 3.1719-1.8281 1.0078-1.75 0.41016-3.9844-1.3398-4.9961l-17.812-10.285c-1.75-1.0156-3.9844-0.41016-4.9961 1.3398-1.0078 1.75-0.41016 3.9844 1.3398 4.9961z"/>
 <path d="m79.301 134.01c0-2.0195-1.6367-3.6562-3.6562-3.6562h-20.566c-2.0195 0-3.6562 1.6367-3.6562 3.6562 0 2.0195 1.6367 3.6562 3.6562 3.6562h20.566c2.0195 0 3.6562-1.6367 3.6562-3.6562z"/>
 <path d="m232.87 134.01c0-2.0195-1.6367-3.6562-3.6562-3.6562h-20.566c-2.0195 0-3.6562 1.6367-3.6562 3.6562 0 2.0195 1.6367 3.6562 3.6562 3.6562h20.566c2.0195 0 3.6562-1.6367 3.6562-3.6562z"/>
 <path d="m66.215 181.61c0.62109 0 1.25-0.15625 1.8242-0.48828l17.812-10.285c1.75-1.0117 2.3477-3.2461 1.3398-4.9961-1.0117-1.7539-3.25-2.3516-4.9961-1.3398l-17.812 10.285c-1.75 1.0117-2.3477 3.2461-1.3398 4.9961 0.67969 1.1758 1.9102 1.8281 3.1719 1.8281z"/>
 <path d="m201.04 104.34 17.812-10.285c1.75-1.0117 2.3477-3.2461 1.3398-4.9961-1.0117-1.7539-3.25-2.3555-4.9961-1.3398l-17.812 10.285c-1.75 1.0117-2.3477 3.2461-1.3398 4.9961 0.67969 1.1758 1.9062 1.8281 3.1719 1.8281 0.61719 0 1.2461-0.15625 1.8242-0.48828z"/>
 <path d="m104.95 190.81-10.285 17.812c-1.0078 1.75-0.41016 3.9844 1.3398 4.9961 0.57812 0.33203 1.207 0.48828 1.8242 0.48828 1.2656 0 2.4922-0.65625 3.1719-1.8281l10.285-17.812c1.0078-1.75 0.41016-3.9844-1.3398-4.9961-1.7539-1.0117-3.9883-0.40625-4.9961 1.3398z"/>
 <path d="m174.61 81.109c1.2656 0 2.4922-0.65625 3.1719-1.8281l10.285-17.812c1.0078-1.75 0.41016-3.9844-1.3398-4.9961-1.7539-1.0156-3.9844-0.40625-4.9961 1.3398l-10.285 17.812c-1.0078 1.75-0.41016 3.9844 1.3398 4.9961 0.57813 0.33203 1.207 0.48828 1.8242 0.48828z"/>
</svg>
