<?xml version="1.0" encoding="UTF-8"?>
<svg width="512pt" height="512pt" version="1.1" viewBox="0 0 512 512" xmlns="http://www.w3.org/2000/svg">
 <path d="m177.3 285.8c1.3008 0 2.6211-0.5 3.6016-1.4805l0.35938-0.35938c2-2 1.8398-5.0586-0.16016-7.0586-1.9805-2-5.4219-1.8398-7.418 0.16016-2 2-2.0195 5.2383-0.019532 7.2383 1 1 2.3203 1.5195 3.6406 1.5195z"/>
 <path d="m486.94 205.6-28.898-28.898c-0.46094-0.46094-1-0.80078-1.5781-1.0391-0.19922-0.10156-0.44141-0.12109-0.66016-0.17969-0.30078-0.078125-0.57812-0.21875-0.89844-0.23828l-1.8984-0.17969c-13.102-1.2617-23.66-11.18-25.941-23.941l5.2188-5.2188c2-2 2-5.2383 0-7.2383l-73.82-73.82c-1.9219-1.9219-5.3203-1.9219-7.2383 0l-10.859 10.859c-12.379-10.102-47-35.32-89.062-40.262-2.1992-0.23828-4.3789 0.96094-5.2812 3.0195l-6.4805 14.66c-0.98047 2.2383-0.23828 4.8789 1.7812 6.2812 19.801 13.719 45.039 35.121 54.98 60.379l-23.199 23.199c-2 2-2 5.2383 0 7.2383l13.699 13.699-100.54 100.58c-2 2-2 5.2383 0 7.2383s5.2383 2 7.2383 0l100.52-100.58 31.961 31.961-261.02 260.94c-1.4805 1.5-3.5781 2.2188-5.5781 2.3203-2.1211 0-4.1406-0.82031-5.6406-2.3398l-20.68-20.68c-1.5195-1.5195-2.3398-3.5195-2.3398-5.6602 0-2.1016 0.82031-4.0781 2.3398-5.5781l135.62-135.58c2-2 2-5.2383 0-7.2383s-5.2383-2-7.2383 0l-135.62 135.56c-3.4414 3.3984-5.3398 7.9609-5.3594 12.82-0.019532 4.8789 1.8789 9.4805 5.3398 12.918l20.68 20.68c3.4414 3.4414 8.0195 5.3398 12.879 5.3398h0.039063c4.8594-0.019531 9.3984-1.9219 12.801-5.3398l261.02-260.96 13.68 13.68c2 2 5.2383 2 7.2383 0l5.2188-5.2188c12.781 2.2812 22.68 12.859 23.941 25.941l0.17969 1.8984c0.12109 1.1797 0.64063 2.2812 1.4805 3.1211l28.898 28.898c3.0391 3.0391 7.0391 4.5586 11.039 4.5586s8-1.5195 11.039-4.5586l50.98-50.98c2.9414-2.9414 4.5781-6.8594 4.5781-11.039s-1.6211-8.0781-4.5781-11.039zm-7.2383 14.84-50.98 50.98c-2.1016 2.1016-5.5 2.1016-7.6016 0l-27.602-27.602v-0.078125c-1.5-15.379-11.82-28.18-25.84-33.281l39.059-39.059c2-2 2-5.2383 0-7.2383s-5.2383-2-7.2383 0l-48.961 48.961-13.621-13.621s-0.039062-0.058594-0.058593-0.078125l-23.859-23.84-29.039-29.039 21.898-21.898c1.3789-1.3789 1.8594-3.4219 1.2188-5.2812-9.4414-27.66-35.199-50.801-56.457-66.023l3.2188-7.3008c36.961 5.5195 67.398 27.34 79.242 36.879l-16.602 16.602c-2 2-2 5.2383 0 7.2383 1 1 2.3008 1.5 3.6211 1.5 1.3203 0 2.6211-0.5 3.6211-1.5l31.121-31.121 66.582 66.582-3.3789 3.3789c-1.0781 1.0781-1.6211 2.6016-1.4805 4.1211 1.5391 15.941 12.602 29.102 27.398 33.781l-39.941 39.941c-2 2-2 5.2383 0 7.2383 1 1 2.3008 1.5 3.6211 1.5s2.6211-0.5 3.6211-1.5l43.141-43.141 25.32 25.262c1.0195 1.0195 1.5781 2.3594 1.5781 3.8008 0 1.4414-0.55859 2.7812-1.5781 3.8008z"/>
</svg>
