<?xml version="1.0" encoding="UTF-8"?>
<svg width="512pt" height="512pt" version="1.1" viewBox="0 0 512 512" xmlns="http://www.w3.org/2000/svg">
 <path d="m340.18 96.379c0-1.3008 0.76172-2.4805 1.9609-3.0195 6.6406-3 10.621-8.418 12.141-16.582 0.30078-1.5586 1.6602-2.6992 3.2383-2.6992 1.6016 0 2.9609 1.1406 3.2617 2.6992 1.5391 8.1797 5.5195 13.602 12.16 16.582 1.1797 0.53906 1.9609 1.7188 1.9609 3.0195 0 1.3008-0.76172 2.4805-1.9609 3.0195-6.6406 3-10.621 8.418-12.16 16.582-0.30078 1.5586-1.6602 2.6992-3.2617 2.6992-1.6016 0-2.9609-1.1406-3.2383-2.6992-1.5391-8.1602-5.5-13.578-12.141-16.582-1.1992-0.53906-1.9609-1.7188-1.9609-3.0195zm-6.0195 92.719c6.6406 3 10.621 8.418 12.141 16.582 0.30078 1.5586 1.6602 2.6992 3.2383 2.6992 1.6016 0 2.9609-1.1406 3.2617-2.6992 1.5391-8.1602 5.5195-13.578 12.16-16.582 1.1797-0.53906 1.9609-1.7188 1.9609-3.0195s-0.76172-2.4805-1.9609-3.0195c-6.6406-2.9805-10.621-8.418-12.16-16.582-0.30078-1.5586-1.6602-2.6992-3.2617-2.6992-1.6016 0-2.9609 1.1406-3.2383 2.6992-1.5391 8.1602-5.5 13.602-12.141 16.582-1.1797 0.53906-1.9609 1.7188-1.9609 3.0195 0.019531 1.3008 0.78125 2.4805 1.9609 3.0195zm92.078-106.74c6.6406 3 10.621 8.418 12.141 16.582 0.30078 1.5586 1.6602 2.6992 3.2383 2.6992 1.6016 0 2.9609-1.1406 3.2617-2.6992 1.5391-8.1602 5.5195-13.578 12.16-16.582 1.1797-0.53906 1.9609-1.7188 1.9609-3.0195 0-1.3008-0.76172-2.4805-1.9609-3.0195-6.6406-2.9805-10.621-8.418-12.16-16.582-0.30078-1.5586-1.6602-2.6992-3.2617-2.6992-1.6016 0-2.9609 1.1406-3.2383 2.6992-1.5391 8.1602-5.5 13.602-12.141 16.582-1.1797 0.53906-1.9609 1.7188-1.9609 3.0195 0.019531 1.3008 0.78125 2.4805 1.9609 3.0195zm-374.74 26.641c-1.3789-2.6016-1.2383-5.7383 0.39844-8.1797l34.578-51.82c1.4805-2.2188 3.9609-3.5391 6.6211-3.5391h6.0195v-36.5c0-4.3984 3.5586-7.9609 7.9609-7.9609h89.02c4.3984 0 7.9609 3.5586 7.9609 7.9609v36.5h6.0195c2.6602 0 5.1406 1.3203 6.6211 3.5391l34.578 51.82c1.6406 2.4414 1.7812 5.5781 0.39844 8.1797-1.3789 2.6016-4.0781 4.1992-7.0195 4.1992h-186.14c-2.9414 0-5.6406-1.6016-7.0195-4.1992zm63.539-63.52h73.098v-28.559h-73.098zm-41.641 51.801h156.38l-23.941-35.879h-108.48zm2.9609 185.76c5.4414 0 9.8789-4.4219 9.8789-9.8594 0-5.4414-4.4414-9.8789-9.8789-9.8789-5.4414 0-9.8594 4.4414-9.8594 9.8789 0 5.4414 4.4414 9.8594 9.8594 9.8594zm334.62 143.02c4.3984 0 7.9609-3.5586 7.9609-7.9609v-34.641c0-4.3984-3.5586-7.9609-7.9609-7.9609-4.3984 0-7.9609 3.5586-7.9609 7.9609v34.641c0 4.3984 3.5781 7.9609 7.9609 7.9609zm100.02-180.02v257c0 4.3984-3.5586 7.9609-7.9609 7.9609h-494.08c-4.3984 0-7.9609-3.5586-7.9609-7.9609v-257c0-4.3984 3.5586-7.9609 7.9609-7.9609h40.18v-5.7383h-4.7383c-12.738 0-23.102-10.359-23.102-23.102v-15.16c0-4.3984 3.5586-7.9609 7.9609-7.9609h96c4.3984 0 7.9609 3.5586 7.9609 7.9609v15.16c0 12.738-10.359 23.102-23.102 23.102h-4.7383v5.7383h62.238v-5.7383h-0.28125c-11.578 0-21-9.418-21-21v-39.281c0-4.3984 3.5586-7.9609 7.9609-7.9609h82.918c4.3984 0 7.9609 3.5586 7.9609 7.9609v39.281c0 11.578-9.418 21-21 21h-0.28125v5.7383h223.96v-82.023c0-8.3203-6.7812-15.102-15.141-15.102-6.2617 0-11.641 3.8203-13.922 9.2617h2.6797c4.3984 0 7.9609 3.5586 7.9609 7.9609 0 4.3984-3.5586 7.9609-7.9609 7.9609h-21.141c-4.3984 0-7.9609-3.5586-7.9609-7.9609 0-4.3984 3.5586-7.9609 7.9609-7.9609h1.9219c2.7383-14.32 15.359-25.18 30.48-25.18 17.121 0 31.059 13.922 31.059 31.039v25.418h14.68v-9.3984c0-4.3984 3.5586-7.9609 7.9609-7.9609 4.3984 0 7.9609 3.5586 7.9609 7.9609v34.699c0 4.3984-3.5586 7.9609-7.9609 7.9609-4.3984 0-7.9609-3.5586-7.9609-7.9609v-9.3789h-14.68v40.68h39.238c4.3984-0.019531 7.9609 3.5391 7.9609 7.9414zm-286.82-29.621c2.7617 0 5.0781-2.3203 5.0781-5.0781v-31.32h-67v31.32c0 2.7617 2.3203 5.0781 5.0781 5.0781zm-40.641 15.922v5.7383h24.418v-5.7383zm-73.398-15.922c3.9609 0 7.1797-3.2188 7.1797-7.1797v-7.1992h-80.102v7.1992c0 3.9609 3.2188 7.1797 7.1797 7.1797zm-45.078 15.922v5.7383h24.398v-5.7383zm184.48 75.961h-232.62v186.78h232.6zm0-54.297h-232.62v38.379h232.6zm122.76 54.297h-106.84v186.78h106.84zm0-54.297h-106.84v38.379h106.84zm122.78 54.297h-106.84v186.78h106.84zm0-54.297h-106.84v38.379h106.84zm-145.5 172.06c4.3984 0 7.9609-3.5586 7.9609-7.9609v-34.641c0-4.3984-3.5586-7.9609-7.9609-7.9609-4.3984 0-7.9609 3.5586-7.9609 7.9609v34.641c0 4.3984 3.5586 7.9609 7.9609 7.9609zm-159.48-143.02c5.4414 0 9.8789-4.4219 9.8789-9.8594 0-5.4414-4.4414-9.8789-9.8789-9.8789-5.4414 0-9.8594 4.4414-9.8594 9.8789 0 5.4414 4.4219 9.8594 9.8594 9.8594zm-152.98 167.44v-97.617c0-15.102 12.281-27.379 27.379-27.379h137.46c15.102 0 27.379 12.281 27.379 27.379v97.617c0 15.102-12.281 27.379-27.379 27.379l-137.46 0.019531c-15.102 0-27.379-12.281-27.379-27.398zm15.922-80.18h160.38v-17.418c0-6.3203-5.1406-11.461-11.461-11.461h-137.46c-6.3203 0-11.461 5.1406-11.461 11.461zm0 80.18c0 6.3203 5.1406 11.461 11.461 11.461h137.46c6.3203 0 11.461-5.1406 11.461-11.461v-64.262h-160.38z"/>
</svg>
