<?xml version="1.0" encoding="UTF-8"?>
<svg width="512pt" height="512pt" version="1.1" viewBox="0 0 512 512" xmlns="http://www.w3.org/2000/svg">
 <path d="m25.969 492.77h455.95c4.1016 0 7.4219-3.3203 7.4219-7.4219 0-4.1016-3.3203-7.4219-7.4219-7.4219h-27.414l0.003906-264.71h31.523c3.168 0 5.9844-2.0078 7.0156-5.0078 1.0352-2.9922 0.050781-6.3125-2.4492-8.2617l-36.051-28.176-0.003906-115.55c0-4.1016-3.3203-7.4219-7.4219-7.4219h-45.523c-4.1016 0-7.4219 3.3203-7.4219 7.4219v68.383l-132.81-103.8c-2.6953-2.1016-6.4492-2.1016-9.1445 0l-229.22 179.14c-2.4922 1.9492-3.4727 5.2695-2.4414 8.2617 1.0273 3 3.8477 5.0078 7.0156 5.0078h31.523v264.71h-33.129c-4.1016 0-7.4219 3.3203-7.4219 7.4219 0.003906 4.0977 3.3203 7.418 7.4219 7.418zm383.05-429.13h30.68v96.539l-30.68-23.977zm-152.22-27.566c10 7.8164 197.7 154.51 207.67 162.3h-415.35zm-182.86 177.14h365.73v264.71h-365.73z"/>
 <path d="m256.78 281.5c-31.238 0-56.652 25.414-56.652 56.652 0 31.273 25.414 56.719 56.652 56.719 31.273 0 56.719-25.441 56.719-56.719 0-31.238-25.441-56.652-56.719-56.652zm0 98.531c-23.059 0-41.812-18.781-41.812-41.875 0-23.059 18.754-41.812 41.812-41.812 23.094 0 41.875 18.754 41.875 41.812 0.003906 23.094-18.781 41.875-41.875 41.875z"/>
 <path d="m361.19 314.01-14.762-3.6094c-1.7188-5.5234-3.9414-10.871-6.6523-15.977l7.832-12.977c1.7617-2.9219 1.3047-6.6602-1.1016-9.0742l-23.926-23.992c-2.4062-2.4219-6.1602-2.875-9.0781-1.1172l-13.059 7.8555c-5.0508-2.6523-10.398-4.832-15.973-6.5156l-3.6094-14.789c-0.8125-3.3203-3.7891-5.6602-7.2109-5.6602h-33.805c-3.4141 0-6.3828 2.3242-7.2031 5.6367l-3.668 14.824c-5.6016 1.7109-10.926 3.9219-15.934 6.5938l-13.008-7.9258c-2.9219-1.7891-6.6875-1.3398-9.1172 1.0938l-23.926 23.992c-2.4062 2.4141-2.8633 6.1445-1.1016 9.0664l7.8633 13.074c-2.6445 5.043-4.8477 10.363-6.5859 15.883l-14.73 3.625c-3.3203 0.8125-5.6523 3.7812-5.6523 7.2031v33.934c0 3.4258 2.3398 6.4062 5.6758 7.2109l14.668 3.5586c1.7617 5.625 3.9727 10.977 6.6172 16.008l-7.8398 12.922c-1.7695 2.9141-1.3203 6.6602 1.0859 9.0781l23.926 24.059c2.4219 2.4336 6.1875 2.8984 9.1016 1.1172l13.035-7.8906c5.0781 2.6875 10.426 4.8984 15.977 6.6016l3.6094 14.754c0.8125 3.3242 3.7891 5.6602 7.2109 5.6602h33.805c3.4219 0 6.3906-2.332 7.2109-5.6523l3.6094-14.738c5.4414-1.6523 10.824-3.8711 16.066-6.6289l12.926 7.8828c2.9062 1.7734 6.6797 1.3477 9.1094-1.0859l24.059-24.059c2.4219-2.4219 2.8711-6.1875 1.0859-9.1094l-7.875-12.926c2.7383-5.2188 4.957-10.574 6.6172-15.984l14.711-3.5586c3.332-0.80469 5.6797-3.7812 5.6797-7.2109v-33.934c-0.003906-3.4258-2.3359-6.4062-5.6641-7.2188zm-9.1797 35.305-13.273 3.2109c-2.6875 0.64453-4.7969 2.7383-5.4648 5.4219-1.7188 6.9219-4.5508 13.781-8.4219 20.398-1.375 2.3555-1.3477 5.2812 0.074219 7.6094l7.0859 11.629-15.797 15.797-11.629-7.0859c-2.3242-1.4258-5.2539-1.4414-7.6094-0.074219-6.6289 3.875-13.508 6.7109-20.449 8.4219-2.6797 0.66016-4.7734 2.7539-5.4336 5.4336l-3.2539 13.312h-22.164l-3.2539-13.305c-0.65234-2.668-2.7266-4.7539-5.3828-5.4258-7.2109-1.8398-14.051-4.668-20.324-8.4062-2.3555-1.4062-5.2969-1.3984-7.6367 0.027344l-11.754 7.1094-15.719-15.805 7.0664-11.645c1.4141-2.3398 1.4336-5.2695 0.035156-7.625-3.543-6-6.332-12.66-8.2891-19.82-0.48437-2.8828-2.6523-5.2617-5.5742-5.9727l-13.219-3.2031v-22.281l13.238-3.2539c2.6289-0.64453 4.7031-2.6758 5.3984-5.2891 1.9336-7.2461 4.7812-14.109 8.4648-20.398 1.3711-2.3398 1.3555-5.2461-0.050781-7.5742l-7.0781-11.773 15.711-15.754 11.746 7.1602c2.375 1.4492 5.3477 1.4414 7.7109 0.015625 6.1016-3.7031 12.898-6.5234 20.211-8.3828 2.6523-0.67578 4.7188-2.7539 5.375-5.4062l3.3125-13.383h22.168l3.2617 13.363c0.65234 2.6758 2.7383 4.7695 5.4062 5.4336 7.2617 1.8203 14.094 4.6094 20.32 8.2812 2.3477 1.3828 5.2695 1.375 7.6016-0.027344l11.762-7.0742 15.73 15.77-7.0742 11.711c-1.4141 2.3398-1.4219 5.2695-0.027344 7.625 3.7812 6.3633 6.6367 13.219 8.4844 20.363 0.67969 2.6445 2.7617 4.7031 5.4219 5.3555l13.297 3.2539z"/>
 <path d="m256.8 173.39c25.609 0 46.449-20.84 46.449-46.449s-20.84-46.441-46.449-46.441-46.441 20.832-46.441 46.441 20.832 46.449 46.441 46.449zm0-78.051c17.426 0 31.609 14.176 31.609 31.602s-14.18 31.609-31.609 31.609c-17.426 0-31.602-14.18-31.602-31.609s14.172-31.602 31.602-31.602z"/>
</svg>
